<svg xmlns="http://www.w3.org/2000/svg" viewBox="0 0 512 512">
  <rect width="512" height="512" rx="112" fill="#1a1a3e"/>
  <rect x="20" y="20" width="472" height="472" rx="94" fill="#22224e" opacity="0.6"/>
  <line x1="256" y1="256" x2="256" y2="80" stroke="rgba(255,210,80,0.18)" stroke-width="2"/>
  <line x1="256" y1="256" x2="256" y2="432" stroke="rgba(255,210,80,0.18)" stroke-width="2"/>
  <line x1="256" y1="256" x2="80" y2="256" stroke="rgba(255,210,80,0.18)" stroke-width="2"/>
  <line x1="256" y1="256" x2="432" y2="256" stroke="rgba(255,210,80,0.18)" stroke-width="2"/>
  <line x1="256" y1="256" x2="136" y2="136" stroke="rgba(255,210,80,0.12)" stroke-width="2"/>
  <line x1="256" y1="256" x2="376" y2="136" stroke="rgba(255,210,80,0.12)" stroke-width="2"/>
  <line x1="256" y1="256" x2="136" y2="376" stroke="rgba(255,210,80,0.12)" stroke-width="2"/>
  <line x1="256" y1="256" x2="376" y2="376" stroke="rgba(255,210,80,0.12)" stroke-width="2"/>
  <circle cx="256" cy="256" r="148" fill="none" stroke="rgba(255,200,60,0.1)" stroke-width="2"/>
  <circle cx="256" cy="256" r="120" fill="none" stroke="rgba(255,200,60,0.12)" stroke-width="1.5"/>
  <circle cx="256" cy="248" r="96" fill="#f59e0b" opacity="0.15"/>
  <circle cx="256" cy="248" r="78" fill="#fbbf24" opacity="0.25"/>
  <circle cx="256" cy="248" r="60" fill="#fcd34d"/>
  <circle cx="256" cy="248" r="42" fill="#fde68a"/>
  <circle cx="256" cy="248" r="24" fill="white" opacity="0.95"/>
  <text x="256" y="268" text-anchor="middle" font-family="system-ui,-apple-system,sans-serif" font-size="52" font-weight="800" fill="#1a1a3e" opacity="0.9">L</text>
  <rect x="224" y="316" width="64" height="14" rx="7" fill="#fbbf24" opacity="0.7"/>
  <rect x="232" y="334" width="48" height="10" rx="5" fill="#f59e0b" opacity="0.6"/>
  <rect x="240" y="348" width="32" height="8" rx="4" fill="#d97706" opacity="0.5"/>
  <circle cx="148" cy="148" r="4" fill="#fcd34d" opacity="0.7"/>
  <circle cx="364" cy="148" r="4" fill="#fcd34d" opacity="0.7"/>
  <circle cx="148" cy="364" r="3" fill="#fcd34d" opacity="0.5"/>
  <circle cx="364" cy="364" r="3" fill="#fcd34d" opacity="0.5"/>
  <circle cx="100" cy="256" r="3" fill="#fbbf24" opacity="0.4"/>
  <circle cx="412" cy="256" r="3" fill="#fbbf24" opacity="0.4"/>
  <circle cx="256" cy="100" r="3" fill="#fbbf24" opacity="0.4"/>
</svg>
